<svg xmlns="http://www.w3.org/2000/svg" width="1600" height="900" viewBox="0 0 1600 900" shape-rendering="crispEdges">
  <defs>
    <linearGradient id="sky" x1="0" y1="0" x2="0" y2="1">
      <stop offset="0%" stop-color="#d2f3ff" />
      <stop offset="55%" stop-color="#c6efe5" />
      <stop offset="100%" stop-color="#c0e8d9" />
    </linearGradient>
    <g id="cloud" fill="#f4fdff">
      <rect x="24" y="0" width="24" height="24" />
      <rect x="48" y="0" width="24" height="24" />
      <rect x="0" y="24" width="24" height="24" />
      <rect x="24" y="24" width="24" height="24" />
      <rect x="48" y="24" width="24" height="24" />
      <rect x="72" y="24" width="24" height="24" />
      <rect x="24" y="48" width="24" height="24" />
      <rect x="48" y="48" width="24" height="24" />
    </g>
    <g id="tree">
      <rect x="14" y="56" width="20" height="44" fill="#7f5e45" />
      <rect x="0" y="40" width="48" height="20" fill="#66a78a" />
      <rect x="6" y="24" width="36" height="20" fill="#78b99a" />
      <rect x="12" y="8" width="24" height="20" fill="#8ed0ad" />
      <rect x="18" y="0" width="12" height="12" fill="#a6dfbd" />
    </g>
  </defs>

  <rect width="1600" height="900" fill="url(#sky)" />

  <use href="#cloud" x="200" y="120" opacity="0.95" />
  <use href="#cloud" x="520" y="88" opacity="0.9" />
  <use href="#cloud" x="930" y="126" opacity="0.92" />
  <use href="#cloud" x="1240" y="92" opacity="0.9" />

  <rect x="0" y="430" width="1600" height="180" fill="#b0ddbe" />
  <rect x="0" y="470" width="1600" height="140" fill="#9ad0ad" opacity="0.95" />

  <rect x="40" y="420" width="160" height="20" fill="#a4d8b8" />
  <rect x="180" y="400" width="120" height="20" fill="#a4d8b8" />
  <rect x="280" y="380" width="140" height="20" fill="#a4d8b8" />
  <rect x="420" y="360" width="140" height="20" fill="#a4d8b8" />
  <rect x="560" y="340" width="120" height="20" fill="#a4d8b8" />
  <rect x="680" y="320" width="120" height="20" fill="#a4d8b8" />
  <rect x="800" y="340" width="140" height="20" fill="#a4d8b8" />
  <rect x="940" y="360" width="140" height="20" fill="#a4d8b8" />
  <rect x="1080" y="380" width="140" height="20" fill="#a4d8b8" />
  <rect x="1220" y="400" width="140" height="20" fill="#a4d8b8" />
  <rect x="1360" y="420" width="160" height="20" fill="#a4d8b8" />

  <rect x="0" y="600" width="1600" height="28" fill="#8ac6b2" />
  <rect x="0" y="628" width="1600" height="8" fill="#8f7a5d" opacity="0.55" />

  <rect x="0" y="636" width="1600" height="264" fill="#79bdc1" />
  <rect x="0" y="672" width="1600" height="228" fill="#6eb3ba" opacity="0.9" />

  <rect x="40" y="640" width="80" height="6" fill="#a7e1e6" />
  <rect x="170" y="650" width="110" height="6" fill="#a7e1e6" />
  <rect x="340" y="644" width="95" height="6" fill="#a7e1e6" />
  <rect x="460" y="656" width="120" height="6" fill="#a7e1e6" />
  <rect x="640" y="646" width="90" height="6" fill="#a7e1e6" />
  <rect x="780" y="652" width="120" height="6" fill="#a7e1e6" />
  <rect x="940" y="644" width="110" height="6" fill="#a7e1e6" />
  <rect x="1110" y="654" width="100" height="6" fill="#a7e1e6" />
  <rect x="1260" y="646" width="120" height="6" fill="#a7e1e6" />
  <rect x="1410" y="652" width="100" height="6" fill="#a7e1e6" />

  <use href="#tree" x="70" y="490" />
  <use href="#tree" x="128" y="486" />
  <use href="#tree" x="186" y="492" />
  <use href="#tree" x="244" y="488" />
  <use href="#tree" x="302" y="494" />

  <use href="#tree" x="1210" y="492" />
  <use href="#tree" x="1268" y="486" />
  <use href="#tree" x="1326" y="494" />
  <use href="#tree" x="1384" y="488" />
  <use href="#tree" x="1442" y="492" />

  <rect x="640" y="612" width="8" height="72" fill="#705840" />
  <rect x="648" y="608" width="84" height="8" fill="#705840" />
  <rect x="728" y="612" width="8" height="68" fill="#705840" />
  <rect x="716" y="672" width="28" height="8" fill="#705840" />

  <rect x="620" y="590" width="20" height="12" fill="#efdfcf" />
  <rect x="626" y="578" width="8" height="12" fill="#efdfcf" />
  <rect x="616" y="598" width="10" height="8" fill="#d9a1ab" />

  <rect x="492" y="612" width="30" height="10" fill="#eab9c4" />
  <rect x="498" y="604" width="18" height="8" fill="#eab9c4" />
  <rect x="1408" y="612" width="30" height="10" fill="#eab9c4" />
  <rect x="1414" y="604" width="18" height="8" fill="#eab9c4" />

  <rect x="72" y="614" width="20" height="10" fill="#d7c6a8" />
  <rect x="104" y="614" width="20" height="10" fill="#d7c6a8" />
  <rect x="136" y="614" width="20" height="10" fill="#d7c6a8" />
  <rect x="1460" y="614" width="20" height="10" fill="#d7c6a8" />
  <rect x="1492" y="614" width="20" height="10" fill="#d7c6a8" />

  <rect x="0" y="724" width="1600" height="10" fill="#9cdbe0" opacity="0.45" />
  <rect x="0" y="782" width="1600" height="10" fill="#9cdbe0" opacity="0.4" />
  <rect x="0" y="842" width="1600" height="10" fill="#9cdbe0" opacity="0.35" />
</svg>
